<svg width="78" height="30.999999999999996" xmlns="http://www.w3.org/2000/svg">
 <!-- Created with Method Draw - http://github.com/duopixel/Method-Draw/ -->
 <g>
  <title>background</title>
  <rect fill="none" id="canvas_background" height="33" width="80" y="-1" x="-1"/>
 </g>
 <g>
  <title>Layer 1</title>
  <g stroke="null" id="svg_1">
   <path stroke="null" id="svg_6" fill="#ffffff" d="m31.215331,26.171069l-5.943393,-6.108743c-0.313182,-0.322757 -0.701564,-0.525503 -1.10764,-0.613693c1.677385,-2.4775 2.21705,-5.51687 1.637574,-8.364404l-2.424069,2.443861c-0.052197,1.983818 -0.80419,3.952181 -2.273671,5.462319c-3.046895,3.130288 -8.004736,3.130288 -11.051631,0c-3.046896,-3.131196 -3.046896,-8.226209 0,-11.357406c3.046895,-3.130287 8.004736,-3.130287 11.051631,0c0.433501,0.445495 0.797997,0.933722 1.10764,1.448315l-5.611631,5.656883l-4.536725,-4.466774c-0.529048,-0.521866 -1.368626,-0.502773 -1.876441,0.040913c-0.506932,0.543686 -0.489238,1.407402 0.039811,1.928359l5.464772,5.380494c0.256562,0.251841 0.587438,0.378216 0.918315,0.378216c0.3353,0 0.671485,-0.130012 0.928931,-0.389126l10.901233,-10.987373c0.522856,-0.527321 0.532588,-1.391037 0.018579,-1.928359s-1.351817,-0.547323 -1.876442,-0.019092l-2.443532,2.462953c-0.341493,-0.502773 -0.721913,-0.985545 -1.158953,-1.433768c-4.081991,-4.194021 -10.723409,-4.194021 -14.804515,0c-4.081106,4.194931 -4.08199,11.020103 0,15.214124c3.634334,3.733979 9.293739,4.134016 13.373076,1.218294c0.0867,0.417311 0.281333,0.81462 0.598055,1.139195l5.942508,6.106925c0.866118,0.890081 2.265708,0.890081 3.129172,0c0.86081,-0.887354 0.86081,-2.325668 -0.002654,-3.212113z"/>
   <polyline stroke-linecap="round" id="svg_9" points="21.98933422484484,8.882882868643996 21.98933422484484,8.882882868643996 22.06578665529497,8.882882868643996 22.142239085745103,8.882882868643996 22.142239085745103,8.882882868643996 22.218691516195236,8.882882868643996 22.295143946645382,8.80643043819386 22.44804880754565,8.729978007743725 22.52450123799578,8.653525577293589 22.75385852934619,8.424168285943182 22.906763390246454,8.194810994592775 23.212573112046996,7.965453703242371 23.365477972947275,7.736096411891964 23.594835264297686,7.506739120541557 23.74774012519795,7.2773818291911505 23.824192555648082,7.200929398741014 23.97709741654836,7.0480245378407425 24.130002277448625,6.971572107390608 24.282907138348904,6.895119676940471 24.282907138348904,6.895119676940471 24.282907138348904,6.818667246490335 " opacity="0.5" fill-opacity="null" stroke-opacity="null" stroke-width="null" stroke="null" fill="none"/>
   <polyline stroke-linecap="round" id="svg_10" points="23.824192555648082,7.736096411891964 23.74774012519795,7.8125488423421 23.671287694747814,7.889001272792236 23.441930403397407,8.118358564142643 23.136120681596864,8.424168285943182 22.83031095979632,8.729978007743725 22.52450123799578,9.112240159994403 22.295143946645382,9.34159745134481 22.142239085745103,9.494502312245082 22.142239085745103,9.570954742695218 22.06578665529497,9.647407173145353 " opacity="0.5" fill-opacity="null" stroke-opacity="null" stroke-width="null" stroke="null" fill="none"/>
   <line stroke-linecap="null" stroke-linejoin="null" id="svg_11" y2="10.564836" x2="20.460286" y1="5.977691" x1="25.047431" fill-opacity="null" stroke-opacity="null" stroke-width="NaN" stroke="null" fill="none"/>
   <line stroke-linecap="null" stroke-linejoin="null" id="svg_12" y2="7.124477" x2="26.57648" y1="8.882883" x1="23.977097" fill-opacity="null" stroke-opacity="null" stroke-width="NaN" stroke="null" fill="none"/>
  </g>
  <text stroke="#000" font-weight="bold" xml:space="preserve" text-anchor="start" font-family="Arvo, sans-serif" font-size="15" id="svg_19" y="20.5977" x="29.372248" stroke-opacity="null" stroke-width="0" fill="#ffffff">INSPX</text>
 </g>
</svg>