<svg width="512" height="512" xmlns="http://www.w3.org/2000/svg">
 <g>
  <title>Layer 1</title>
  <path fill="#555555" d="m256,0c-141.16406,0 -256,114.83594 -256,256s114.83594,256 256,256s256,-114.83594 256,-256s-114.83594,-256 -256,-256zm121.75,388.41406c-4.16016,4.16016 -9.62109,6.25391 -15.08203,6.25391c-5.46094,0 -10.92578,-2.09375 -15.08203,-6.25391l-106.66797,-106.66406c-4.01172,-3.98828 -6.25,-9.41016 -6.25,-15.08203l0,-138.66797c0,-11.79688 9.55469,-21.33203 21.33203,-21.33203s21.33203,9.53515 21.33203,21.33203l0,129.83594l100.41797,100.41406c8.33984,8.34375 8.33984,21.82422 0,30.16406zm0,0" id="svg_1"/>
 </g>

</svg>